# Blender v2.82 (sub 1) OBJ File: 'rohre.blend'
# www.blender.org
mtllib rohr_01.mtl
o Cylinder
v 0.000000 7.671275 -5.625938
v 0.000000 7.671275 5.625938
v 0.056356 7.665725 -5.625938
v 0.056356 7.665724 5.625938
v 0.110545 7.649286 -5.625938
v 0.110545 7.649286 5.625938
v 0.160487 7.622592 -5.625938
v 0.160487 7.622591 5.625938
v 0.204261 7.586668 -5.625938
v 0.204261 7.586667 5.625938
v 0.240186 7.542893 -5.625938
v 0.240186 7.542893 5.625938
v 0.266880 7.492952 -5.625938
v 0.266880 7.492951 5.625938
v 0.283318 7.438762 -5.625938
v 0.283318 7.438762 5.625938
v 0.288869 7.382407 -5.625938
v 0.288869 7.382406 5.625938
v 0.283318 7.326051 -5.625938
v 0.283318 7.326051 5.625938
v 0.266880 7.271861 -5.625938
v 0.266880 7.271861 5.625938
v 0.240186 7.221920 -5.625938
v 0.240186 7.221919 5.625938
v 0.204261 7.178145 -5.625938
v 0.204261 7.178145 5.625938
v 0.160487 7.142221 -5.625938
v 0.160487 7.142220 5.625938
v 0.110545 7.115527 -5.625938
v 0.110545 7.115526 5.625938
v 0.056355 7.099088 -5.625938
v 0.056355 7.099088 5.625938
v -0.000000 7.093538 -5.625938
v -0.000000 7.093537 5.625938
v -0.056356 7.099088 -5.625938
v -0.056356 7.099088 5.625938
v -0.110545 7.115527 -5.625938
v -0.110545 7.115526 5.625938
v -0.160487 7.142221 -5.625938
v -0.160487 7.142220 5.625938
v -0.204261 7.178145 -5.625938
v -0.204261 7.178145 5.625938
v -0.240186 7.221920 -5.625938
v -0.240186 7.221919 5.625938
v -0.266880 7.271862 -5.625938
v -0.266880 7.271861 5.625938
v -0.283318 7.326051 -5.625938
v -0.283318 7.326051 5.625938
v -0.288869 7.382407 -5.625938
v -0.288869 7.382406 5.625938
v -0.283318 7.438762 -5.625938
v -0.283318 7.438762 5.625938
v -0.266880 7.492952 -5.625938
v -0.266880 7.492951 5.625938
v -0.240185 7.542894 -5.625938
v -0.240185 7.542893 5.625938
v -0.204261 7.586668 -5.625938
v -0.204261 7.586668 5.625938
v -0.160487 7.622592 -5.625938
v -0.160487 7.622592 5.625938
v -0.110545 7.649287 -5.625938
v -0.110545 7.649286 5.625938
v -0.056355 7.665725 -5.625938
v -0.056355 7.665724 5.625938
vt 1.000000 0.500000
vt 1.000000 1.000000
vt 0.968750 1.000000
vt 0.968750 0.500000
vt 0.937500 1.000000
vt 0.937500 0.500000
vt 0.906250 1.000000
vt 0.906250 0.500000
vt 0.875000 1.000000
vt 0.875000 0.500000
vt 0.843750 1.000000
vt 0.843750 0.500000
vt 0.812500 1.000000
vt 0.812500 0.500000
vt 0.781250 1.000000
vt 0.781250 0.500000
vt 0.750000 1.000000
vt 0.750000 0.500000
vt 0.718750 1.000000
vt 0.718750 0.500000
vt 0.687500 1.000000
vt 0.687500 0.500000
vt 0.656250 1.000000
vt 0.656250 0.500000
vt 0.625000 1.000000
vt 0.625000 0.500000
vt 0.593750 1.000000
vt 0.593750 0.500000
vt 0.562500 1.000000
vt 0.562500 0.500000
vt 0.531250 1.000000
vt 0.531250 0.500000
vt 0.500000 1.000000
vt 0.500000 0.500000
vt 0.468750 1.000000
vt 0.468750 0.500000
vt 0.437500 1.000000
vt 0.437500 0.500000
vt 0.406250 1.000000
vt 0.406250 0.500000
vt 0.375000 1.000000
vt 0.375000 0.500000
vt 0.343750 1.000000
vt 0.343750 0.500000
vt 0.312500 1.000000
vt 0.312500 0.500000
vt 0.281250 1.000000
vt 0.281250 0.500000
vt 0.250000 1.000000
vt 0.250000 0.500000
vt 0.218750 1.000000
vt 0.218750 0.500000
vt 0.187500 1.000000
vt 0.187500 0.500000
vt 0.156250 1.000000
vt 0.156250 0.500000
vt 0.125000 1.000000
vt 0.125000 0.500000
vt 0.093750 1.000000
vt 0.093750 0.500000
vt 0.062500 1.000000
vt 0.062500 0.500000
vt 0.031250 1.000000
vt 0.031250 0.500000
vt 0.000000 1.000000
vt 0.000000 0.500000
vn 0.0000 1.0000 0.0000
vn 0.1951 0.9808 0.0000
vn 0.3827 0.9239 0.0000
vn 0.5556 0.8314 0.0000
vn 0.7071 0.7071 0.0000
vn 0.8314 0.5556 0.0000
vn 0.9239 0.3827 0.0000
vn 0.9808 0.1951 0.0000
vn 1.0000 0.0000 0.0000
vn 0.9808 -0.1951 0.0000
vn 0.9239 -0.3827 0.0000
vn 0.8314 -0.5556 0.0000
vn 0.7071 -0.7071 0.0000
vn 0.5556 -0.8314 0.0000
vn 0.3827 -0.9239 0.0000
vn 0.1951 -0.9808 0.0000
vn 0.0000 -1.0000 0.0000
vn -0.1951 -0.9808 0.0000
vn -0.3827 -0.9239 0.0000
vn -0.5556 -0.8314 0.0000
vn -0.7071 -0.7071 0.0000
vn -0.8314 -0.5556 0.0000
vn -0.9239 -0.3827 0.0000
vn -0.9808 -0.1951 0.0000
vn -1.0000 0.0000 0.0000
vn -0.9808 0.1951 0.0000
vn -0.9239 0.3827 0.0000
vn -0.8314 0.5556 0.0000
vn -0.7071 0.7071 0.0000
vn -0.5556 0.8314 0.0000
vn -0.3827 0.9239 0.0000
vn -0.1951 0.9808 0.0000
usemtl None
s 1
f 1/1/1 2/2/1 4/3/2 3/4/2
f 3/4/2 4/3/2 6/5/3 5/6/3
f 5/6/3 6/5/3 8/7/4 7/8/4
f 7/8/4 8/7/4 10/9/5 9/10/5
f 9/10/5 10/9/5 12/11/6 11/12/6
f 11/12/6 12/11/6 14/13/7 13/14/7
f 13/14/7 14/13/7 16/15/8 15/16/8
f 15/16/8 16/15/8 18/17/9 17/18/9
f 17/18/9 18/17/9 20/19/10 19/20/10
f 19/20/10 20/19/10 22/21/11 21/22/11
f 21/22/11 22/21/11 24/23/12 23/24/12
f 23/24/12 24/23/12 26/25/13 25/26/13
f 25/26/13 26/25/13 28/27/14 27/28/14
f 27/28/14 28/27/14 30/29/15 29/30/15
f 29/30/15 30/29/15 32/31/16 31/32/16
f 31/32/16 32/31/16 34/33/17 33/34/17
f 33/34/17 34/33/17 36/35/18 35/36/18
f 35/36/18 36/35/18 38/37/19 37/38/19
f 37/38/19 38/37/19 40/39/20 39/40/20
f 39/40/20 40/39/20 42/41/21 41/42/21
f 41/42/21 42/41/21 44/43/22 43/44/22
f 43/44/22 44/43/22 46/45/23 45/46/23
f 45/46/23 46/45/23 48/47/24 47/48/24
f 47/48/24 48/47/24 50/49/25 49/50/25
f 49/50/25 50/49/25 52/51/26 51/52/26
f 51/52/26 52/51/26 54/53/27 53/54/27
f 53/54/27 54/53/27 56/55/28 55/56/28
f 55/56/28 56/55/28 58/57/29 57/58/29
f 57/58/29 58/57/29 60/59/30 59/60/30
f 59/60/30 60/59/30 62/61/31 61/62/31
f 61/62/31 62/61/31 64/63/32 63/64/32
f 63/64/32 64/63/32 2/65/1 1/66/1
o Cylinder.004
v 0.442981 7.095638 -4.992534
v 0.442981 7.095638 -4.612026
v 0.000000 7.090008 -4.992534
v 0.000000 7.090008 -4.612026
v -0.057163 7.095638 -4.992534
v -0.057163 7.095638 -4.612026
v -0.112129 7.112312 -4.992534
v -0.112129 7.112312 -4.612026
v -0.162786 7.139389 -4.992534
v -0.162786 7.139389 -4.612026
v -0.207188 7.175828 -4.992534
v -0.207188 7.175828 -4.612026
v -0.243627 7.220230 -4.992534
v -0.243627 7.220230 -4.612026
v -0.270704 7.270887 -4.992534
v -0.270704 7.270887 -4.612026
v -0.287378 7.325853 -4.992534
v -0.287378 7.325853 -4.612026
v -0.293008 7.383016 -4.992534
v -0.293008 7.383016 -4.612026
v -0.287378 7.440179 -4.992534
v -0.287378 7.440179 -4.612026
v -0.270704 7.495145 -4.992534
v -0.270704 7.495145 -4.612026
v -0.243627 7.545803 -4.992534
v -0.243627 7.545803 -4.612026
v -0.207188 7.590204 -4.992534
v -0.207188 7.590204 -4.612026
v -0.162786 7.626643 -4.992534
v -0.162786 7.626643 -4.612026
v -0.112129 7.653720 -4.992534
v -0.112129 7.653720 -4.612026
v -0.057163 7.670394 -4.992534
v -0.057163 7.670394 -4.612026
v 0.000000 7.676024 -4.992534
v 0.000000 7.676024 -4.612026
v 0.438979 7.670394 -4.992534
v 0.438979 7.670394 -4.612026
vt 0.781250 0.500000
vt 0.781250 1.000000
vt 0.750000 1.000000
vt 0.750000 0.500000
vt 0.718750 1.000000
vt 0.718750 0.500000
vt 0.687500 1.000000
vt 0.687500 0.500000
vt 0.656250 1.000000
vt 0.656250 0.500000
vt 0.625000 1.000000
vt 0.625000 0.500000
vt 0.593750 1.000000
vt 0.593750 0.500000
vt 0.562500 1.000000
vt 0.562500 0.500000
vt 0.531250 1.000000
vt 0.531250 0.500000
vt 0.500000 1.000000
vt 0.500000 0.500000
vt 0.468750 1.000000
vt 0.468750 0.500000
vt 0.437500 1.000000
vt 0.437500 0.500000
vt 0.406250 1.000000
vt 0.406250 0.500000
vt 0.375000 1.000000
vt 0.375000 0.500000
vt 0.343750 1.000000
vt 0.343750 0.500000
vt 0.312500 1.000000
vt 0.312500 0.500000
vt 0.281250 1.000000
vt 0.281250 0.500000
vt 0.250000 1.000000
vt 0.250000 0.500000
vt 0.218750 1.000000
vt 0.218750 0.500000
vn 0.0127 -0.9999 0.0000
vn -0.0427 -0.9991 0.0000
vn -0.1951 -0.9808 0.0000
vn -0.3827 -0.9239 0.0000
vn -0.5556 -0.8314 0.0000
vn -0.7071 -0.7071 0.0000
vn -0.8314 -0.5556 0.0000
vn -0.9239 -0.3827 0.0000
vn -0.9808 -0.1951 0.0000
vn -1.0000 0.0000 0.0000
vn -0.9808 0.1951 0.0000
vn -0.9239 0.3827 0.0000
vn -0.8314 0.5556 0.0000
vn -0.7071 0.7071 0.0000
vn -0.5556 0.8314 0.0000
vn -0.3827 0.9239 0.0000
vn -0.1951 0.9808 0.0000
vn -0.0426 0.9991 0.0000
vn 0.0128 0.9999 0.0000
usemtl None
s 1
f 65/67/33 66/68/33 68/69/34 67/70/34
f 67/70/34 68/69/34 70/71/35 69/72/35
f 69/72/35 70/71/35 72/73/36 71/74/36
f 71/74/36 72/73/36 74/75/37 73/76/37
f 73/76/37 74/75/37 76/77/38 75/78/38
f 75/78/38 76/77/38 78/79/39 77/80/39
f 77/80/39 78/79/39 80/81/40 79/82/40
f 79/82/40 80/81/40 82/83/41 81/84/41
f 81/84/41 82/83/41 84/85/42 83/86/42
f 83/86/42 84/85/42 86/87/43 85/88/43
f 85/88/43 86/87/43 88/89/44 87/90/44
f 87/90/44 88/89/44 90/91/45 89/92/45
f 89/92/45 90/91/45 92/93/46 91/94/46
f 91/94/46 92/93/46 94/95/47 93/96/47
f 93/96/47 94/95/47 96/97/48 95/98/48
f 95/98/48 96/97/48 98/99/49 97/100/49
f 97/100/49 98/99/49 100/101/50 99/102/50
f 99/102/50 100/101/50 102/103/51 101/104/51
o Cylinder.001_Cylinder.007
v 0.442981 7.095638 -1.979575
v 0.442981 7.095638 -1.599068
v 0.000000 7.090008 -1.979575
v 0.000000 7.090008 -1.599068
v -0.057163 7.095638 -1.979575
v -0.057163 7.095638 -1.599068
v -0.112129 7.112312 -1.979575
v -0.112129 7.112312 -1.599068
v -0.162786 7.139389 -1.979575
v -0.162786 7.139389 -1.599068
v -0.207188 7.175828 -1.979575
v -0.207188 7.175828 -1.599068
v -0.243627 7.220230 -1.979575
v -0.243627 7.220230 -1.599068
v -0.270704 7.270887 -1.979575
v -0.270704 7.270887 -1.599068
v -0.287378 7.325853 -1.979575
v -0.287378 7.325853 -1.599068
v -0.293008 7.383016 -1.979575
v -0.293008 7.383016 -1.599068
v -0.287378 7.440179 -1.979575
v -0.287378 7.440179 -1.599068
v -0.270704 7.495145 -1.979575
v -0.270704 7.495145 -1.599068
v -0.243627 7.545803 -1.979575
v -0.243627 7.545803 -1.599068
v -0.207188 7.590204 -1.979575
v -0.207188 7.590204 -1.599068
v -0.162786 7.626643 -1.979575
v -0.162786 7.626643 -1.599068
v -0.112129 7.653720 -1.979575
v -0.112129 7.653720 -1.599068
v -0.057163 7.670394 -1.979575
v -0.057163 7.670394 -1.599068
v 0.000000 7.676024 -1.979575
v 0.000000 7.676024 -1.599068
v 0.438979 7.670394 -1.979575
v 0.438979 7.670394 -1.599068
vt 0.781250 0.500000
vt 0.781250 1.000000
vt 0.750000 1.000000
vt 0.750000 0.500000
vt 0.718750 1.000000
vt 0.718750 0.500000
vt 0.687500 1.000000
vt 0.687500 0.500000
vt 0.656250 1.000000
vt 0.656250 0.500000
vt 0.625000 1.000000
vt 0.625000 0.500000
vt 0.593750 1.000000
vt 0.593750 0.500000
vt 0.562500 1.000000
vt 0.562500 0.500000
vt 0.531250 1.000000
vt 0.531250 0.500000
vt 0.500000 1.000000
vt 0.500000 0.500000
vt 0.468750 1.000000
vt 0.468750 0.500000
vt 0.437500 1.000000
vt 0.437500 0.500000
vt 0.406250 1.000000
vt 0.406250 0.500000
vt 0.375000 1.000000
vt 0.375000 0.500000
vt 0.343750 1.000000
vt 0.343750 0.500000
vt 0.312500 1.000000
vt 0.312500 0.500000
vt 0.281250 1.000000
vt 0.281250 0.500000
vt 0.250000 1.000000
vt 0.250000 0.500000
vt 0.218750 1.000000
vt 0.218750 0.500000
vn 0.0127 -0.9999 0.0000
vn -0.0427 -0.9991 0.0000
vn -0.1951 -0.9808 0.0000
vn -0.3827 -0.9239 0.0000
vn -0.5556 -0.8314 0.0000
vn -0.7071 -0.7071 0.0000
vn -0.8314 -0.5556 0.0000
vn -0.9239 -0.3827 0.0000
vn -0.9808 -0.1951 0.0000
vn -1.0000 0.0000 0.0000
vn -0.9808 0.1951 0.0000
vn -0.9239 0.3827 0.0000
vn -0.8314 0.5556 0.0000
vn -0.7071 0.7071 0.0000
vn -0.5556 0.8314 0.0000
vn -0.3827 0.9239 0.0000
vn -0.1951 0.9808 0.0000
vn -0.0426 0.9991 0.0000
vn 0.0128 0.9999 0.0000
usemtl None
s 1
f 103/105/52 104/106/52 106/107/53 105/108/53
f 105/108/53 106/107/53 108/109/54 107/110/54
f 107/110/54 108/109/54 110/111/55 109/112/55
f 109/112/55 110/111/55 112/113/56 111/114/56
f 111/114/56 112/113/56 114/115/57 113/116/57
f 113/116/57 114/115/57 116/117/58 115/118/58
f 115/118/58 116/117/58 118/119/59 117/120/59
f 117/120/59 118/119/59 120/121/60 119/122/60
f 119/122/60 120/121/60 122/123/61 121/124/61
f 121/124/61 122/123/61 124/125/62 123/126/62
f 123/126/62 124/125/62 126/127/63 125/128/63
f 125/128/63 126/127/63 128/129/64 127/130/64
f 127/130/64 128/129/64 130/131/65 129/132/65
f 129/132/65 130/131/65 132/133/66 131/134/66
f 131/134/66 132/133/66 134/135/67 133/136/67
f 133/136/67 134/135/67 136/137/68 135/138/68
f 135/138/68 136/137/68 138/139/69 137/140/69
f 137/140/69 138/139/69 140/141/70 139/142/70
o Cylinder.002_Cylinder.008
v 0.442981 7.095638 1.639185
v 0.442981 7.095638 2.019692
v 0.000000 7.090008 1.639185
v 0.000000 7.090008 2.019692
v -0.057163 7.095638 1.639185
v -0.057163 7.095638 2.019692
v -0.112129 7.112312 1.639185
v -0.112129 7.112312 2.019692
v -0.162786 7.139389 1.639185
v -0.162786 7.139389 2.019692
v -0.207188 7.175828 1.639185
v -0.207188 7.175828 2.019692
v -0.243627 7.220230 1.639185
v -0.243627 7.220230 2.019692
v -0.270704 7.270887 1.639185
v -0.270704 7.270887 2.019692
v -0.287378 7.325853 1.639185
v -0.287378 7.325853 2.019692
v -0.293008 7.383016 1.639185
v -0.293008 7.383016 2.019692
v -0.287378 7.440179 1.639185
v -0.287378 7.440179 2.019692
v -0.270704 7.495145 1.639185
v -0.270704 7.495145 2.019692
v -0.243627 7.545803 1.639185
v -0.243627 7.545803 2.019692
v -0.207188 7.590204 1.639185
v -0.207188 7.590204 2.019692
v -0.162786 7.626643 1.639185
v -0.162786 7.626643 2.019692
v -0.112129 7.653720 1.639185
v -0.112129 7.653720 2.019692
v -0.057163 7.670394 1.639185
v -0.057163 7.670394 2.019692
v 0.000000 7.676024 1.639185
v 0.000000 7.676024 2.019692
v 0.438979 7.670394 1.639185
v 0.438979 7.670394 2.019692
vt 0.781250 0.500000
vt 0.781250 1.000000
vt 0.750000 1.000000
vt 0.750000 0.500000
vt 0.718750 1.000000
vt 0.718750 0.500000
vt 0.687500 1.000000
vt 0.687500 0.500000
vt 0.656250 1.000000
vt 0.656250 0.500000
vt 0.625000 1.000000
vt 0.625000 0.500000
vt 0.593750 1.000000
vt 0.593750 0.500000
vt 0.562500 1.000000
vt 0.562500 0.500000
vt 0.531250 1.000000
vt 0.531250 0.500000
vt 0.500000 1.000000
vt 0.500000 0.500000
vt 0.468750 1.000000
vt 0.468750 0.500000
vt 0.437500 1.000000
vt 0.437500 0.500000
vt 0.406250 1.000000
vt 0.406250 0.500000
vt 0.375000 1.000000
vt 0.375000 0.500000
vt 0.343750 1.000000
vt 0.343750 0.500000
vt 0.312500 1.000000
vt 0.312500 0.500000
vt 0.281250 1.000000
vt 0.281250 0.500000
vt 0.250000 1.000000
vt 0.250000 0.500000
vt 0.218750 1.000000
vt 0.218750 0.500000
vn 0.0127 -0.9999 0.0000
vn -0.0427 -0.9991 0.0000
vn -0.1951 -0.9808 0.0000
vn -0.3827 -0.9239 0.0000
vn -0.5556 -0.8314 0.0000
vn -0.7071 -0.7071 0.0000
vn -0.8314 -0.5556 0.0000
vn -0.9239 -0.3827 0.0000
vn -0.9808 -0.1951 0.0000
vn -1.0000 0.0000 0.0000
vn -0.9808 0.1951 0.0000
vn -0.9239 0.3827 0.0000
vn -0.8314 0.5556 0.0000
vn -0.7071 0.7071 0.0000
vn -0.5556 0.8314 0.0000
vn -0.3827 0.9239 0.0000
vn -0.1951 0.9808 0.0000
vn -0.0426 0.9991 0.0000
vn 0.0128 0.9999 0.0000
usemtl None
s 1
f 141/143/71 142/144/71 144/145/72 143/146/72
f 143/146/72 144/145/72 146/147/73 145/148/73
f 145/148/73 146/147/73 148/149/74 147/150/74
f 147/150/74 148/149/74 150/151/75 149/152/75
f 149/152/75 150/151/75 152/153/76 151/154/76
f 151/154/76 152/153/76 154/155/77 153/156/77
f 153/156/77 154/155/77 156/157/78 155/158/78
f 155/158/78 156/157/78 158/159/79 157/160/79
f 157/160/79 158/159/79 160/161/80 159/162/80
f 159/162/80 160/161/80 162/163/81 161/164/81
f 161/164/81 162/163/81 164/165/82 163/166/82
f 163/166/82 164/165/82 166/167/83 165/168/83
f 165/168/83 166/167/83 168/169/84 167/170/84
f 167/170/84 168/169/84 170/171/85 169/172/85
f 169/172/85 170/171/85 172/173/86 171/174/86
f 171/174/86 172/173/86 174/175/87 173/176/87
f 173/176/87 174/175/87 176/177/88 175/178/88
f 175/178/88 176/177/88 178/179/89 177/180/89
o Cylinder.003_Cylinder.009
v 0.442981 7.095638 4.631213
v 0.442981 7.095638 5.011720
v 0.000000 7.090008 4.631213
v 0.000000 7.090008 5.011720
v -0.057163 7.095638 4.631213
v -0.057163 7.095638 5.011720
v -0.112129 7.112312 4.631213
v -0.112129 7.112312 5.011720
v -0.162786 7.139389 4.631213
v -0.162786 7.139389 5.011720
v -0.207188 7.175828 4.631213
v -0.207188 7.175828 5.011720
v -0.243627 7.220230 4.631213
v -0.243627 7.220230 5.011720
v -0.270704 7.270887 4.631213
v -0.270704 7.270887 5.011720
v -0.287378 7.325853 4.631213
v -0.287378 7.325853 5.011720
v -0.293008 7.383016 4.631213
v -0.293008 7.383016 5.011720
v -0.287378 7.440179 4.631213
v -0.287378 7.440179 5.011720
v -0.270704 7.495145 4.631213
v -0.270704 7.495145 5.011720
v -0.243627 7.545803 4.631213
v -0.243627 7.545803 5.011720
v -0.207188 7.590204 4.631213
v -0.207188 7.590204 5.011720
v -0.162786 7.626643 4.631213
v -0.162786 7.626643 5.011720
v -0.112129 7.653720 4.631213
v -0.112129 7.653720 5.011720
v -0.057163 7.670394 4.631213
v -0.057163 7.670394 5.011720
v 0.000000 7.676024 4.631213
v 0.000000 7.676024 5.011720
v 0.438979 7.670394 4.631213
v 0.438979 7.670394 5.011720
vt 0.781250 0.500000
vt 0.781250 1.000000
vt 0.750000 1.000000
vt 0.750000 0.500000
vt 0.718750 1.000000
vt 0.718750 0.500000
vt 0.687500 1.000000
vt 0.687500 0.500000
vt 0.656250 1.000000
vt 0.656250 0.500000
vt 0.625000 1.000000
vt 0.625000 0.500000
vt 0.593750 1.000000
vt 0.593750 0.500000
vt 0.562500 1.000000
vt 0.562500 0.500000
vt 0.531250 1.000000
vt 0.531250 0.500000
vt 0.500000 1.000000
vt 0.500000 0.500000
vt 0.468750 1.000000
vt 0.468750 0.500000
vt 0.437500 1.000000
vt 0.437500 0.500000
vt 0.406250 1.000000
vt 0.406250 0.500000
vt 0.375000 1.000000
vt 0.375000 0.500000
vt 0.343750 1.000000
vt 0.343750 0.500000
vt 0.312500 1.000000
vt 0.312500 0.500000
vt 0.281250 1.000000
vt 0.281250 0.500000
vt 0.250000 1.000000
vt 0.250000 0.500000
vt 0.218750 1.000000
vt 0.218750 0.500000
vn 0.0127 -0.9999 0.0000
vn -0.0427 -0.9991 0.0000
vn -0.1951 -0.9808 0.0000
vn -0.3827 -0.9239 0.0000
vn -0.5556 -0.8314 0.0000
vn -0.7071 -0.7071 0.0000
vn -0.8314 -0.5556 0.0000
vn -0.9239 -0.3827 0.0000
vn -0.9808 -0.1951 0.0000
vn -1.0000 0.0000 0.0000
vn -0.9808 0.1951 0.0000
vn -0.9239 0.3827 0.0000
vn -0.8314 0.5556 0.0000
vn -0.7071 0.7071 0.0000
vn -0.5556 0.8314 0.0000
vn -0.3827 0.9239 0.0000
vn -0.1951 0.9808 0.0000
vn -0.0426 0.9991 0.0000
vn 0.0128 0.9999 0.0000
usemtl None
s 1
f 179/181/90 180/182/90 182/183/91 181/184/91
f 181/184/91 182/183/91 184/185/92 183/186/92
f 183/186/92 184/185/92 186/187/93 185/188/93
f 185/188/93 186/187/93 188/189/94 187/190/94
f 187/190/94 188/189/94 190/191/95 189/192/95
f 189/192/95 190/191/95 192/193/96 191/194/96
f 191/194/96 192/193/96 194/195/97 193/196/97
f 193/196/97 194/195/97 196/197/98 195/198/98
f 195/198/98 196/197/98 198/199/99 197/200/99
f 197/200/99 198/199/99 200/201/100 199/202/100
f 199/202/100 200/201/100 202/203/101 201/204/101
f 201/204/101 202/203/101 204/205/102 203/206/102
f 203/206/102 204/205/102 206/207/103 205/208/103
f 205/208/103 206/207/103 208/209/104 207/210/104
f 207/210/104 208/209/104 210/211/105 209/212/105
f 209/212/105 210/211/105 212/213/106 211/214/106
f 211/214/106 212/213/106 214/215/107 213/216/107
f 213/216/107 214/215/107 216/217/108 215/218/108
