# Blender v2.82 (sub 1) OBJ File: ''
# www.blender.org
mtllib lampenschirm.mtl
o Cone
v -2.182075 -1.309140 1.458014
v -2.424591 -1.309140 1.004297
v -0.187080 0.466750 0.077491
v -0.168367 0.466750 0.112499
v 0.511986 -1.309139 -2.573930
v 1.004298 -1.309140 -2.424589
v 0.077491 0.466750 -0.187080
v 0.039505 0.466750 -0.198603
v 2.624357 -1.309140 -0.000000
v 2.573931 -1.309140 0.511987
v 0.198603 0.466750 0.039504
v 0.202494 0.466750 0.000000
v 0.511986 -1.309140 2.573931
v -0.000001 -1.309140 2.624358
v 0.000000 0.466750 0.202493
v 0.039505 0.466750 0.198602
v -1.855699 -1.309140 -1.855703
v -1.458012 -1.309140 -2.182075
v -0.112499 0.466750 -0.168368
v -0.143184 0.466750 -0.143185
v 1.458015 -1.309140 -2.182073
v 0.112500 0.466750 -0.168367
v 2.424590 -1.309140 1.004298
v 0.187080 0.466750 0.077491
v -2.573932 -1.309140 0.511985
v -0.198603 0.466750 0.039504
v -0.511988 -1.309140 2.573931
v -0.039505 0.466750 0.198602
v -1.004295 -1.309140 -2.424591
v -0.077491 0.466750 -0.187080
v 1.855701 -1.309140 -1.855700
v 0.143185 0.466750 -0.143185
v 2.182073 -1.309140 1.458015
v 0.168367 0.466750 0.112499
v -2.624357 -1.309140 -0.000002
v -0.202494 0.466750 0.000000
v -1.004299 -1.309140 2.424590
v -0.077491 0.466750 0.187079
v -0.511983 -1.309139 -2.573931
v -0.039504 0.466750 -0.198603
v 2.182073 -1.309140 -1.458014
v 0.168367 0.466750 -0.112500
v 0.000000 -1.309139 -2.624357
v 0.000000 0.466750 -0.202494
v 1.855701 -1.309140 1.855701
v 0.143185 0.466750 0.143184
v -2.573931 -1.309140 -0.511989
v -0.198603 0.466750 -0.039505
v -1.458016 -1.309140 2.182073
v -0.112499 0.466750 0.168367
v 2.424590 -1.309140 -1.004297
v 0.187080 0.466750 -0.077491
v 1.458014 -1.309140 2.182074
v 0.112500 0.466750 0.168367
v -2.424589 -1.309140 -1.004300
v -0.187080 0.466750 -0.077491
v -1.855702 -1.309140 1.855700
v -0.143185 0.466750 0.143184
v 2.573931 -1.309140 -0.511986
v 0.198603 0.466750 -0.039505
v 1.004297 -1.309140 2.424591
v 0.077491 0.466750 0.187079
v -2.182072 -1.309140 -1.458017
v -0.168367 0.466750 -0.112500
v -2.221407 -1.244627 1.484294
v -2.468296 -1.244626 1.022398
v -0.230785 0.531264 0.095592
v -0.207699 0.531264 0.138779
v 0.521215 -1.244626 -2.620326
v 1.022399 -1.244626 -2.468294
v 0.095592 0.531264 -0.230785
v 0.048734 0.531264 -0.244998
v 2.671663 -1.244626 -0.000000
v 2.620327 -1.244626 0.521216
v 0.244998 0.531264 0.048733
v 0.249800 0.531264 0.000000
v 0.521215 -1.244627 2.620326
v -0.000001 -1.244627 2.671664
v 0.000000 0.531264 0.249799
v 0.048734 0.531264 0.244998
v -1.889150 -1.244626 -1.889154
v -1.484292 -1.244626 -2.221407
v -0.138779 0.531264 -0.207700
v -0.176635 0.531264 -0.176636
v 1.484295 -1.244626 -2.221406
v 0.138780 0.531264 -0.207699
v 2.468295 -1.244626 1.022399
v 0.230785 0.531264 0.095592
v -2.620327 -1.244626 0.521214
v -0.244998 0.531264 0.048733
v -0.521217 -1.244627 2.620326
v -0.048734 0.531264 0.244998
v -1.022396 -1.244626 -2.468296
v -0.095592 0.531264 -0.230785
v 1.889152 -1.244626 -1.889151
v 0.176636 0.531264 -0.176636
v 2.221405 -1.244627 1.484295
v 0.207699 0.531264 0.138779
v -2.671663 -1.244626 -0.000002
v -0.249800 0.531264 0.000000
v -1.022400 -1.244627 2.468295
v -0.095592 0.531264 0.230784
v -0.521212 -1.244626 -2.620327
v -0.048733 0.531264 -0.244998
v 2.221405 -1.244626 -1.484294
v 0.207699 0.531264 -0.138780
v 0.000000 -1.244626 -2.671663
v 0.000000 0.531264 -0.249800
v 1.889152 -1.244627 1.889151
v 0.176636 0.531264 0.176635
v -2.620327 -1.244626 -0.521218
v -0.244998 0.531264 -0.048734
v -1.484296 -1.244627 2.221405
v -0.138779 0.531264 0.207699
v 2.468295 -1.244626 -1.022398
v 0.230785 0.531264 -0.095592
v 1.484294 -1.244627 2.221406
v 0.138780 0.531264 0.207699
v -2.468294 -1.244626 -1.022401
v -0.230785 0.531264 -0.095592
v -1.889153 -1.244627 1.889151
v -0.176636 0.531264 0.176635
v 2.620327 -1.244626 -0.521215
v 0.244998 0.531264 -0.048734
v 1.022398 -1.244627 2.468296
v 0.095592 0.531264 0.230784
v -2.221404 -1.244626 -1.484297
v -0.207699 0.531264 -0.138780
vt 0.000000 0.000000
vt 0.000000 0.000000
vt 0.000000 0.000000
vt 0.000000 0.000000
vt 0.000000 0.000000
vt 0.000000 0.000000
vt 0.000000 0.000000
vt 0.000000 0.000000
vt 0.000000 0.000000
vt 0.000000 0.000000
vt 0.000000 0.000000
vt 0.000000 0.000000
vt 0.000000 0.000000
vt 0.000000 0.000000
vt 0.000000 0.000000
vt 0.000000 0.000000
vt 0.000000 0.000000
vt 0.000000 0.000000
vt 0.000000 0.000000
vt 0.000000 0.000000
vt 0.000000 0.000000
vt 0.000000 0.000000
vt 0.000000 0.000000
vt 0.000000 0.000000
vt 0.000000 0.000000
vt 0.000000 0.000000
vt 0.000000 0.000000
vt 0.000000 0.000000
vt 0.000000 0.000000
vt 0.000000 0.000000
vt 0.000000 0.000000
vt 0.000000 0.000000
vt 0.000000 0.000000
vt 0.000000 0.000000
vt 0.000000 0.000000
vt 0.000000 0.000000
vt 0.000000 0.000000
vt 0.000000 0.000000
vt 0.000000 0.000000
vt 0.000000 0.000000
vt 0.000000 0.000000
vt 0.000000 0.000000
vt 0.000000 0.000000
vt 0.000000 0.000000
vt 0.000000 0.000000
vt 0.000000 0.000000
vt 0.000000 0.000000
vt 0.000000 0.000000
vt 0.000000 0.000000
vt 0.000000 0.000000
vt 0.000000 0.000000
vt 0.000000 0.000000
vt 0.000000 0.000000
vt 0.000000 0.000000
vt 0.000000 0.000000
vt 0.000000 0.000000
vt 0.000000 0.000000
vt 0.000000 0.000000
vt 0.000000 0.000000
vt 0.000000 0.000000
vt 0.000000 0.000000
vt 0.000000 0.000000
vt 0.000000 0.000000
vt 0.000000 0.000000
vt 0.000000 0.000000
vt 0.000000 0.000000
vt 0.000000 0.000000
vt 0.000000 0.000000
vt 0.000000 0.000000
vt 0.000000 0.000000
vt 0.000000 0.000000
vt 0.000000 0.000000
vt 0.000000 0.000000
vt 0.000000 0.000000
vt 0.000000 0.000000
vt 0.000000 0.000000
vt 0.000000 0.000000
vt 0.000000 0.000000
vt 0.000000 0.000000
vt 0.000000 0.000000
vt 0.000000 0.000000
vt 0.000000 0.000000
vt 0.000000 0.000000
vt 0.000000 0.000000
vt 0.000000 0.000000
vt 0.000000 0.000000
vt 0.000000 0.000000
vt 0.000000 0.000000
vt 0.000000 0.000000
vt 0.000000 0.000000
vt 0.000000 0.000000
vt 0.000000 0.000000
vt 0.000000 0.000000
vt 0.000000 0.000000
vt 0.000000 0.000000
vt 0.000000 0.000000
vt 0.000000 0.000000
vt 0.000000 0.000000
vt 0.000000 0.000000
vt 0.000000 0.000000
vt 0.000000 0.000000
vt 0.000000 0.000000
vt 0.000000 0.000000
vt 0.000000 0.000000
vt 0.000000 0.000000
vt 0.000000 0.000000
vt 0.000000 0.000000
vt 0.000000 0.000000
vt 0.000000 0.000000
vt 0.000000 0.000000
vt 0.000000 0.000000
vt 0.000000 0.000000
vt 0.000000 0.000000
vt 0.000000 0.000000
vt 0.000000 0.000000
vt 0.000000 0.000000
vt 0.000000 0.000000
vt 0.000000 0.000000
vt 0.000000 0.000000
vt 0.000000 0.000000
vt 0.000000 0.000000
vt 0.000000 0.000000
vt 0.000000 0.000000
vt 0.000000 0.000000
vt 0.000000 0.000000
vt 0.000000 0.000000
vt 0.000000 0.000000
vt 0.000000 0.000000
vn 0.4917 -0.8064 -0.3285
vn 0.5463 -0.8064 -0.2263
vn -0.1154 -0.8064 0.5800
vn -0.2263 -0.8064 0.5463
vn -0.5913 -0.8064 -0.0000
vn -0.5800 -0.8064 -0.1154
vn -0.1154 -0.8064 -0.5800
vn 0.0000 -0.8064 -0.5913
vn 0.4181 -0.8064 0.4181
vn 0.3285 -0.8064 0.4917
vn -0.3285 -0.8064 0.4917
vn -0.5463 -0.8064 -0.2263
vn 0.5800 -0.8064 -0.1154
vn 0.1154 -0.8064 -0.5800
vn 0.2263 -0.8064 0.5463
vn -0.4181 -0.8064 0.4181
vn -0.4917 -0.8064 -0.3285
vn 0.5913 -0.8064 0.0000
vn 0.2263 -0.8064 -0.5463
vn 0.1154 -0.8064 0.5800
vn -0.4917 -0.8064 0.3285
vn -0.0000 -0.8064 0.5913
vn -0.4181 -0.8064 -0.4181
vn 0.5800 -0.8064 0.1154
vn 0.3285 -0.8064 -0.4917
vn -0.5463 -0.8064 0.2263
vn -0.3285 -0.8064 -0.4917
vn 0.5463 -0.8064 0.2263
vn 0.4181 -0.8064 -0.4181
vn -0.5800 -0.8064 0.1154
vn -0.2263 -0.8064 -0.5463
vn 0.4917 -0.8064 0.3285
vn -0.4917 0.8064 0.3285
vn -0.5463 0.8064 0.2263
vn 0.1154 0.8064 -0.5800
vn 0.2263 0.8064 -0.5463
vn 0.5913 0.8064 0.0000
vn 0.5800 0.8064 0.1154
vn 0.1154 0.8064 0.5800
vn 0.0000 0.8064 0.5913
vn -0.4181 0.8064 -0.4181
vn -0.3285 0.8064 -0.4917
vn 0.3285 0.8064 -0.4917
vn 0.5463 0.8064 0.2263
vn -0.5800 0.8064 0.1154
vn -0.1154 0.8064 0.5800
vn -0.2263 0.8064 -0.5463
vn 0.4181 0.8064 -0.4181
vn 0.4917 0.8064 0.3285
vn -0.5913 0.8064 -0.0000
vn -0.2263 0.8064 0.5463
vn -0.1154 0.8064 -0.5800
vn 0.4917 0.8064 -0.3285
vn 0.0000 0.8064 -0.5913
vn 0.4181 0.8064 0.4181
vn -0.5800 0.8064 -0.1154
vn -0.3285 0.8064 0.4917
vn 0.5463 0.8064 -0.2263
vn 0.3285 0.8064 0.4917
vn -0.5463 0.8064 -0.2263
vn -0.4181 0.8064 0.4181
vn 0.5800 0.8064 -0.1154
vn 0.2263 0.8064 0.5463
vn -0.4917 0.8064 -0.3285
vn -0.7451 -0.5913 0.3086
vn -0.6705 -0.5913 0.4480
vn 0.6705 0.5913 -0.4480
vn 0.7450 0.5913 -0.3086
vn 0.3086 -0.5913 -0.7451
vn 0.1573 -0.5913 -0.7909
vn -0.1573 0.5913 0.7909
vn -0.3086 0.5913 0.7450
vn 0.7909 -0.5913 0.1573
vn 0.8064 -0.5913 0.0000
vn -0.8064 0.5913 -0.0000
vn -0.7909 0.5913 -0.1573
vn -0.0000 -0.5913 0.8064
vn 0.1573 -0.5913 0.7909
vn -0.1573 0.5913 -0.7909
vn 0.0000 0.5913 -0.8064
vn -0.4480 -0.5913 -0.6705
vn -0.5702 -0.5913 -0.5702
vn 0.5702 0.5913 0.5702
vn 0.4480 0.5913 0.6705
vn 0.4480 -0.5913 -0.6705
vn -0.4480 0.5913 0.6705
vn 0.7451 -0.5913 0.3086
vn -0.7450 0.5913 -0.3086
vn -0.7909 -0.5913 0.1573
vn 0.7909 0.5913 -0.1573
vn -0.1573 -0.5913 0.7909
vn 0.1573 0.5913 -0.7909
vn -0.3086 -0.5913 -0.7451
vn 0.3086 0.5913 0.7451
vn 0.5702 -0.5913 -0.5702
vn -0.5702 0.5913 0.5702
vn 0.6705 -0.5913 0.4480
vn -0.6705 0.5913 -0.4480
vn -0.8064 -0.5913 -0.0000
vn 0.8064 0.5913 -0.0000
vn -0.3086 -0.5913 0.7450
vn -0.3086 -0.5913 0.7451
vn 0.3086 0.5913 -0.7451
vn -0.1573 -0.5913 -0.7909
vn 0.1573 0.5913 0.7909
vn 0.6705 -0.5913 -0.4480
vn -0.6705 0.5913 0.4480
vn 0.0000 -0.5913 -0.8064
vn 0.0000 0.5913 0.8064
vn 0.5702 -0.5913 0.5702
vn -0.5702 0.5913 -0.5702
vn -0.7909 -0.5913 -0.1573
vn 0.7909 0.5913 0.1573
vn -0.4480 -0.5913 0.6705
vn 0.4480 0.5913 -0.6705
vn 0.7451 -0.5913 -0.3086
vn -0.7450 0.5913 0.3086
vn 0.4480 -0.5913 0.6705
vn -0.4480 0.5913 -0.6705
vn -0.7451 -0.5913 -0.3086
vn 0.7450 0.5913 0.3086
vn -0.5702 -0.5913 0.5702
vn 0.5702 0.5913 -0.5702
vn 0.7909 -0.5913 -0.1573
vn -0.7909 0.5913 0.1573
vn 0.3086 -0.5913 0.7451
vn -0.3086 0.5913 -0.7451
vn -0.6705 -0.5913 -0.4480
vn 0.6705 0.5913 0.4480
usemtl Default_OBJ
s 1
f 1/1/1 2/2/2 3/3/2 4/4/1
f 5/5/3 6/6/4 7/7/4 8/8/3
f 9/9/5 10/10/6 11/11/6 12/12/5
f 13/13/7 14/14/8 15/15/8 16/16/7
f 17/17/9 18/18/10 19/19/10 20/20/9
f 6/6/4 21/21/11 22/22/11 7/7/4
f 10/10/6 23/23/12 24/24/12 11/11/6
f 2/2/2 25/25/13 26/26/13 3/3/2
f 14/14/8 27/27/14 28/28/14 15/15/8
f 18/18/10 29/29/15 30/30/15 19/19/10
f 21/21/11 31/31/16 32/32/16 22/22/11
f 23/23/12 33/33/17 34/34/17 24/24/12
f 25/25/13 35/35/18 36/36/18 26/26/13
f 27/27/14 37/37/19 38/38/19 28/28/14
f 29/29/15 39/39/20 40/40/20 30/30/15
f 31/31/16 41/41/21 42/42/21 32/32/16
f 39/39/20 43/43/22 44/44/22 40/40/20
f 33/33/17 45/45/23 46/46/23 34/34/17
f 35/35/18 47/47/24 48/48/24 36/36/18
f 37/37/19 49/49/25 50/50/25 38/38/19
f 41/41/21 51/51/26 52/52/26 42/42/21
f 45/45/23 53/53/27 54/54/27 46/46/23
f 47/47/24 55/55/28 56/56/28 48/48/24
f 49/49/25 57/57/29 58/58/29 50/50/25
f 51/51/26 59/59/30 60/60/30 52/52/26
f 43/43/22 5/5/3 8/8/3 44/44/22
f 53/53/27 61/61/31 62/62/31 54/54/27
f 55/55/28 63/63/32 64/64/32 56/56/28
f 57/57/29 1/1/1 4/4/1 58/58/29
f 59/59/30 9/9/5 12/12/5 60/60/30
f 61/61/31 13/13/7 16/16/7 62/62/31
f 63/63/32 17/17/9 20/20/9 64/64/32
f 65/65/33 68/66/33 67/67/34 66/68/34
f 69/69/35 72/70/35 71/71/36 70/72/36
f 73/73/37 76/74/37 75/75/38 74/76/38
f 77/77/39 80/78/39 79/79/40 78/80/40
f 81/81/41 84/82/41 83/83/42 82/84/42
f 70/72/36 71/71/36 86/85/43 85/86/43
f 74/76/38 75/75/38 88/87/44 87/88/44
f 66/68/34 67/67/34 90/89/45 89/90/45
f 78/80/40 79/79/40 92/91/46 91/92/46
f 82/84/42 83/83/42 94/93/47 93/94/47
f 85/86/43 86/85/43 96/95/48 95/96/48
f 87/88/44 88/87/44 98/97/49 97/98/49
f 89/90/45 90/89/45 100/99/50 99/100/50
f 91/92/46 92/91/46 102/101/51 101/102/51
f 93/94/47 94/93/47 104/103/52 103/104/52
f 95/96/48 96/95/48 106/105/53 105/106/53
f 103/104/52 104/103/52 108/107/54 107/108/54
f 97/98/49 98/97/49 110/109/55 109/110/55
f 99/100/50 100/99/50 112/111/56 111/112/56
f 101/102/51 102/101/51 114/113/57 113/114/57
f 105/106/53 106/105/53 116/115/58 115/116/58
f 109/110/55 110/109/55 118/117/59 117/118/59
f 111/112/56 112/111/56 120/119/60 119/120/60
f 113/114/57 114/113/57 122/121/61 121/122/61
f 115/116/58 116/115/58 124/123/62 123/124/62
f 107/108/54 108/107/54 72/70/35 69/69/35
f 117/118/59 118/117/59 126/125/63 125/126/63
f 119/120/60 120/119/60 128/127/64 127/128/64
f 121/122/61 122/121/61 68/66/33 65/65/33
f 123/124/62 124/123/62 76/74/37 73/73/37
f 125/126/63 126/125/63 80/78/39 77/77/39
f 127/128/64 128/127/64 84/82/41 81/81/41
f 2/2/65 1/1/66 65/65/66 66/68/65
f 4/4/67 3/3/68 67/67/68 68/66/67
f 6/6/69 5/5/70 69/69/70 70/72/69
f 8/8/71 7/7/72 71/71/72 72/70/71
f 10/10/73 9/9/74 73/73/74 74/76/73
f 12/12/75 11/11/76 75/75/76 76/74/75
f 14/14/77 13/13/78 77/77/78 78/80/77
f 16/16/79 15/15/80 79/79/80 80/78/79
f 18/18/81 17/17/82 81/81/82 82/84/81
f 20/20/83 19/19/84 83/83/84 84/82/83
f 21/21/85 6/6/69 70/72/69 85/86/85
f 7/7/72 22/22/86 86/85/86 71/71/72
f 23/23/87 10/10/73 74/76/73 87/88/87
f 11/11/76 24/24/88 88/87/88 75/75/76
f 25/25/89 2/2/65 66/68/65 89/90/89
f 3/3/68 26/26/90 90/89/90 67/67/68
f 27/27/91 14/14/77 78/80/77 91/92/91
f 15/15/80 28/28/92 92/91/92 79/79/80
f 29/29/93 18/18/81 82/84/81 93/94/93
f 19/19/84 30/30/94 94/93/94 83/83/84
f 31/31/95 21/21/85 85/86/85 95/96/95
f 22/22/86 32/32/96 96/95/96 86/85/86
f 33/33/97 23/23/87 87/88/87 97/98/97
f 24/24/88 34/34/98 98/97/98 88/87/88
f 35/35/99 25/25/89 89/90/89 99/100/99
f 26/26/90 36/36/100 100/99/100 90/89/90
f 37/37/101 27/27/91 91/92/91 101/102/102
f 28/28/92 38/38/103 102/101/103 92/91/92
f 39/39/104 29/29/93 93/94/93 103/104/104
f 30/30/94 40/40/105 104/103/105 94/93/94
f 41/41/106 31/31/95 95/96/95 105/106/106
f 32/32/96 42/42/107 106/105/107 96/95/96
f 43/43/108 39/39/104 103/104/104 107/108/108
f 40/40/105 44/44/109 108/107/109 104/103/105
f 45/45/110 33/33/97 97/98/97 109/110/110
f 34/34/98 46/46/111 110/109/111 98/97/98
f 47/47/112 35/35/99 99/100/99 111/112/112
f 36/36/100 48/48/113 112/111/113 100/99/100
f 49/49/114 37/37/101 101/102/102 113/114/114
f 38/38/103 50/50/115 114/113/115 102/101/103
f 51/51/116 41/41/106 105/106/106 115/116/116
f 42/42/107 52/52/117 116/115/117 106/105/107
f 53/53/118 45/45/110 109/110/110 117/118/118
f 46/46/111 54/54/119 118/117/119 110/109/111
f 55/55/120 47/47/112 111/112/112 119/120/120
f 48/48/113 56/56/121 120/119/121 112/111/113
f 57/57/122 49/49/114 113/114/114 121/122/122
f 50/50/115 58/58/123 122/121/123 114/113/115
f 59/59/124 51/51/116 115/116/116 123/124/124
f 52/52/117 60/60/125 124/123/125 116/115/117
f 5/5/70 43/43/108 107/108/108 69/69/70
f 44/44/109 8/8/71 72/70/71 108/107/109
f 61/61/126 53/53/118 117/118/118 125/126/126
f 54/54/119 62/62/127 126/125/127 118/117/119
f 63/63/128 55/55/120 119/120/120 127/128/128
f 56/56/121 64/64/129 128/127/129 120/119/121
f 1/1/66 57/57/122 121/122/122 65/65/66
f 58/58/123 4/4/67 68/66/67 122/121/123
f 9/9/74 59/59/124 123/124/124 73/73/74
f 60/60/125 12/12/75 76/74/75 124/123/125
f 13/13/78 61/61/126 125/126/126 77/77/78
f 62/62/127 16/16/79 80/78/79 126/125/127
f 17/17/82 63/63/128 127/128/128 81/81/82
f 64/64/129 20/20/83 84/82/83 128/127/129
